<svg width="40" height="40" viewBox="0 0 40 40" fill="none" xmlns="http://www.w3.org/2000/svg">
<path d="M39.086 34.6641L29.7345 25.3125C31.861 22.1555 32.9102 18.211 32.3485 14.0078C31.3907 6.85863 25.5313 1.04066 18.3751 0.134644C7.73525 -1.21168 -1.21163 7.73519 0.13478 18.375C1.04103 25.5344 6.85978 31.3985 14.0098 32.3516C18.2129 32.9132 22.1582 31.8644 25.3145 29.7375L34.666 39.0891C35.8863 40.3094 37.8652 40.3094 39.0856 39.0891C40.3048 37.8672 40.3048 35.8828 39.086 34.6641ZM6.17978 16.25C6.17978 10.736 10.6657 6.25003 16.1798 6.25003C21.6938 6.25003 26.1798 10.736 26.1798 16.25C26.1798 21.7641 21.6938 26.25 16.1798 26.25C10.6657 26.25 6.17978 21.7657 6.17978 16.25Z" fill="#D03900"/>
</svg>
