<svg width="30" height="30" viewBox="0 0 30 30" fill="none" xmlns="http://www.w3.org/2000/svg">
<g id="pen-to-square-solid 1" clip-path="url(#clip0_104_14)">
<path id="Vector" d="M28.7285 2.36719C30.0117 3.64864 30.0117 5.72637 28.7285 7.00782L26.9707 8.77149L21.2285 3.03047L22.9922 1.26914C24.2754 -0.0125056 26.3496 -0.0125056 27.6328 1.26914L28.7285 2.36719ZM10.1016 14.1621L19.9043 4.35586L25.6465 10.0957L15.8379 19.8984C15.4805 20.2617 15.041 20.5313 14.5547 20.6953L9.35156 22.4297C8.79492 22.5938 8.29102 22.4648 7.91016 22.0371C7.53516 21.709 7.40625 21.1523 7.57031 20.6484L9.30469 15.4453C9.46875 14.959 9.73828 14.5195 10.1016 14.1621ZM11.25 3.69727C12.2871 3.69727 13.125 4.58965 13.125 5.57227C13.125 6.66211 12.2871 7.44727 11.25 7.44727H5.625C4.58965 7.44727 3.75 8.3379 3.75 9.32227V24.375C3.75 25.4121 4.58965 26.25 5.625 26.25H20.625C21.6621 26.25 22.5 25.4121 22.5 24.375V18.6973C22.5 17.7129 23.3379 16.8223 24.375 16.8223C25.4121 16.8223 26.25 17.7129 26.25 18.6973V24.375C26.25 27.4805 23.7305 30 20.625 30H5.625C2.51836 30 0 27.4805 0 24.375V9.32227C0 6.2168 2.51836 3.69727 5.625 3.69727H11.25Z" fill="black"/>
</g>
<defs>
<clipPath id="clip0_104_14">
<rect width="30" height="30" fill="white"/>
</clipPath>
</defs>
</svg>
