<svg width="24" height="28" viewBox="0 0 24 28" fill="none" xmlns="http://www.w3.org/2000/svg">
<g id="trash-solid 1">
<path id="Vector" d="M7.24286 0.967422C7.53214 0.3745 8.12679 0 8.775 0H15.225C15.8732 0 16.4679 0.3745 16.7571 0.967422L17.1429 1.75H22.2857C23.2339 1.75 24 2.53367 24 3.5C24 4.46633 23.2339 5.25 22.2857 5.25H1.71429C0.767679 5.25 0 4.46633 0 3.5C0 2.53367 0.767679 1.75 1.71429 1.75H6.85714L7.24286 0.967422ZM21.15 25.4898C21.0643 26.9227 19.9446 28 18.5839 28H5.41607C4.05804 28 2.93411 26.9227 2.84946 25.4898L1.66607 7H22.2857L21.15 25.4898Z" fill="black"/>
</g>
</svg>
